<?xml version="1.0" encoding="UTF-8" standalone="no"?>
<!-- Created with Inkscape (http://www.inkscape.org/) -->

<svg
   width="107.42088mm"
   height="90.116585mm"
   viewBox="0 0 107.42088 90.116585"
   version="1.1"
   id="svg1"
   xml:space="preserve"
   inkscape:version="1.4 (86a8ad7, 2024-10-11)"
   sodipodi:docname="fehrware logo.svg"
   xmlns:inkscape="http://www.inkscape.org/namespaces/inkscape"
   xmlns:sodipodi="http://sodipodi.sourceforge.net/DTD/sodipodi-0.dtd"
   xmlns="http://www.w3.org/2000/svg"
   xmlns:svg="http://www.w3.org/2000/svg"><sodipodi:namedview
     id="namedview1"
     pagecolor="#ffffff"
     bordercolor="#000000"
     borderopacity="0.25"
     inkscape:showpageshadow="2"
     inkscape:pageopacity="0.0"
     inkscape:pagecheckerboard="0"
     inkscape:deskcolor="#d1d1d1"
     inkscape:document-units="mm"
     inkscape:zoom="1.4378367"
     inkscape:cx="490.31994"
     inkscape:cy="608.90086"
     inkscape:window-width="1920"
     inkscape:window-height="1046"
     inkscape:window-x="-11"
     inkscape:window-y="-11"
     inkscape:window-maximized="1"
     inkscape:current-layer="layer1"><inkscape:page
       x="0"
       y="0"
       width="107.42088"
       height="90.116585"
       id="page2"
       margin="0"
       bleed="0" /></sodipodi:namedview><defs
     id="defs1" /><g
     inkscape:label="Layer 1"
     inkscape:groupmode="layer"
     id="layer1"
     transform="translate(-62.614778,-113.71308)"><path
       style="fill:#40474e;stroke:none;stroke-width:1.11637"
       d="m 114.68996,113.89583 c -4.44531,1.30285 -1.55237,4.4554 -0.47125,6.59414 0.84731,1.67619 1.32451,7.44848 -0.16767,8.9169 -1.2335,1.21386 -3.60034,-0.31915 -4.6533,-0.97862 -2.55501,-1.60018 -4.60647,-7.53666 -9.06,-4.30975 -1.892599,1.37133 -1.626759,3.78268 0.53253,4.86735 1.56453,0.7859 3.1868,0.26615 4.86545,0.52799 1.455,0.22694 2.77469,1.03153 3.92482,1.74145 2.25637,1.39276 3.96567,5.23196 7.5538,4.05561 1.57331,-0.51581 2.41214,-1.91251 2.09366,-3.23031 -0.2862,-1.18413 -1.44841,-2.06228 -1.81897,-3.22361 -0.66241,-2.07598 -0.41878,-4.96975 -0.1528,-7.09441 0.24536,-1.95985 2.64628,-3.26498 2.39044,-5.29378 -0.24601,-1.95077 -2.71275,-3.25407 -5.03671,-2.57296 m 1.0282,1.99282 c 1.35963,-0.33353 1.97519,1.31309 0.70974,1.73758 -1.47114,0.49347 -2.20363,-1.37109 -0.70974,-1.73758 m 17.05686,23.85814 c 1.65122,0.22474 3.57284,0.072 5.12835,0.58856 1.87384,0.62228 3.15145,1.95725 5.40065,1.51026 3.28946,-0.65372 3.92349,-4.42776 0.91672,-5.72114 -2.88007,-1.23888 -4.66108,1.06736 -7.19515,1.59631 -6.57271,1.37196 -6.55887,-3.99334 -6.55881,-7.49899 5.81613,-2.52412 -0.50104,-8.44104 -4.22206,-4.86054 -2.53519,2.43942 1.07209,4.38 1.48875,6.72491 0.50301,2.83092 -2.58863,4.64639 -2.2477,7.12618 0.49458,3.59734 5.41793,2.59997 7.28925,0.53445 m -29.98579,-14.26932 c 1.50063,-9.6e-4 1.57018,1.99013 0,1.8729 -1.37912,-0.10296 -1.44656,-1.87196 0,-1.8729 m 26.12857,0.91915 c 1.49432,-0.23786 1.92323,1.62987 0.44541,1.86739 -1.50446,0.2418 -1.93367,-1.63049 -0.44541,-1.86739 m -36.341759,8.43887 c -2.79475,0.95069 -3.28623,4.16269 -0.56723,5.42734 2.56282,1.192 4.3317,-0.50734 6.54445,-1.23526 1.968179,-0.64748 5.528019,-0.60903 7.512209,-0.0174 6.96793,2.07758 11.27049,8.80175 17.80635,11.59283 2.50831,1.07116 5.54474,0.21518 8.22836,0.63832 2.77676,0.43781 4.77978,3.1655 7.83254,1.57768 2.39447,-1.24544 2.4312,-4.29042 -0.29953,-5.2869 -2.58414,-0.943 -4.17505,0.67877 -6.3304,1.4074 -1.92632,0.65121 -5.51879,0.60129 -7.45248,-0.006 -6.93437,-2.17934 -11.3113,-8.81408 -17.80636,-11.7118 -2.63108,-1.17385 -5.73147,-0.31987 -8.549279,-0.7668 -2.46907,-0.39163 -4.16564,-2.55545 -6.91863,-1.61898 m 1.1048,1.93936 c 1.38216,-0.35749 2.08775,1.35101 0.69768,1.71055 -1.38217,0.35749 -2.08775,-1.35102 -0.69768,-1.71055 m 48.656859,1.13819 c 1.44716,0 1.44712,1.81542 0,1.81542 -1.44712,0 -1.44716,-1.81542 0,-1.81542 m -53.408249,7.96949 c -3.6547,0.43429 -4.54573,4.35149 -1.2672,5.7531 4.40705,1.88407 8.20783,-4.48813 12.716659,-0.31984 3.65984,3.3834 -0.808729,5.63699 -1.320389,8.80551 -0.2975,1.84224 1.692579,3.60093 4.036319,3.42158 7.03922,-0.53864 0.57062,-7.35365 1.08487,-10.27553 0.36132,-2.05291 3.42712,-3.58065 1.71137,-5.78266 -2.67446,-3.43243 -7.282969,0.94863 -10.985549,0.34641 -2.22132,-0.3613 -3.49046,-2.24395 -5.97608,-1.94857 m 0.1325,2.26809 c 1.35932,-0.34986 2.05259,1.32505 0.6842,1.67317 -1.36672,0.3477 -2.06472,-1.31785 -0.6842,-1.67317 m 48.512159,1.32292 c 1.34083,-0.35941 2.03643,1.32293 0.67327,1.67317 -1.33729,0.34358 -1.97895,-1.32319 -0.67327,-1.67317 m -22.87883,3.29586 c -1.73176,0.51066 -2.50026,1.97221 -2.08945,3.36996 0.34296,1.16687 1.46603,2.05126 1.82487,3.21573 0.62323,2.02253 0.40429,4.77635 0.14934,6.84259 -0.24954,2.02221 -2.77463,3.43974 -2.33269,5.55316 0.38543,1.84324 2.80491,2.94338 4.9906,2.32945 1.97317,-0.55423 2.92552,-2.32475 2.32699,-3.89424 -1.13549,-2.97758 -4.64706,-8.21027 -1.70022,-11.44707 1.28744,-1.41411 3.80303,0.23562 4.98235,0.94078 2.53504,1.5158 4.21491,7.37009 8.73126,4.35644 1.87053,-1.24817 1.79123,-3.75413 -0.23431,-4.86485 -1.4964,-0.82056 -3.18177,-0.36718 -4.8342,-0.60242 -1.59429,-0.22697 -3.00593,-1.12351 -4.2574,-1.89756 -2.34861,-1.45264 -3.89635,-4.98145 -7.55714,-3.90197 m -11.90896,6.81775 c 1.41391,-0.0115 1.43351,1.76609 0,1.76783 -1.42247,0.002 -1.39079,-1.75648 0,-1.76783 m 25.92906,1.22295 c 1.32734,-0.45777 2.18755,1.1513 0.88906,1.63411 -1.303,0.48448 -2.20078,-1.18171 -0.88906,-1.63411 m -12.98287,9.50734 c 1.39107,-0.22577 1.82957,1.46996 0.45586,1.71399 -1.37132,0.24361 -1.85103,-1.48759 -0.45586,-1.71399"
       id="path2"
       inkscape:export-filename="favicon.ico"
       inkscape:export-xdpi="53.720001"
       inkscape:export-ydpi="53.720001"
       sodipodi:nodetypes="cssssssssssssccsccsssscsssccsccsccsscssssscssccsccsccsssssssccsccsccsssssssssssscccccsccsc" /><path
       style="display:inline;fill:#000000"
       d="m 75.711653,201.77959 v -1.91868 l -0.727604,-0.0837 -0.727604,-0.0837 v -0.24701 -0.24701 h 1.852083 1.852083 v 0.24782 0.24782 l -0.859895,0.0829 -0.859896,0.0829 -0.02869,0.66146 -0.02869,0.66145 -0.03746,1.25678 -0.03746,1.25677 -0.198437,4.5e-4 -0.198438,4.6e-4 z m 4.894792,-0.33118 v -2.24896 h 1.719791 1.719792 v 0.26458 0.26459 H 82.59082 81.135611 v 0.77992 0.77992 l 1.389063,0.0972 1.389062,0.0972 -1.389062,0.0489 -1.389063,0.0489 v 0.76507 0.76506 l 0.595313,0.14151 0.595312,0.14151 0.859896,-0.10766 0.859896,-0.10766 v 0.25942 0.25942 h -1.719792 -1.719791 z m 6.929056,1.70948 -0.579057,-0.53947 v -1.16112 -1.16111 l 0.69714,-0.54837 0.69714,-0.54837 0.824214,0.008 0.824214,0.008 0.478854,0.36306 0.478854,0.36306 -0.226903,0.14023 -0.226903,0.14024 -0.384243,-0.24308 -0.384242,-0.24307 -0.686597,-0.004 -0.686597,-0.004 -0.397665,0.46302 -0.397666,0.46302 -0.170636,0.47978 -0.170636,0.47978 0.385766,0.74599 0.385766,0.74599 0.698712,0.17536 0.698711,0.17537 0.619645,-0.40601 0.619644,-0.40601 0.1535,0.24837 0.153499,0.24837 -0.519183,0.27786 -0.519183,0.27786 h -0.893546 -0.893545 z m 6.30011,-1.70948 v -2.24896 h 0.264583 0.264583 v 1.05833 1.05834 h 1.322917 1.322916 v -1.05834 -1.05833 h 0.264584 0.264583 v 2.24896 2.24896 H 97.275194 97.01061 v -1.07283 -1.07283 l -1.25677,0.0806 -1.256771,0.0806 -0.08212,0.99219 -0.08212,0.99219 h -0.248607 -0.248611 z m 11.384749,1.99471 -0.38922,-0.24615 0.17097,-0.17096 0.17097,-0.17097 0.94845,0.34296 0.94845,0.34297 0.43769,-0.43769 0.43769,-0.43769 -0.34127,-0.41121 -0.34128,-0.41121 -0.80113,-0.2076 -0.80113,-0.20759 -0.35272,-0.53122 -0.35272,-0.53123 0.40838,-0.58304 0.40838,-0.58304 h 0.7571 0.75711 l 0.41852,0.1606 0.41851,0.1606 v 0.2111 0.2111 l -1.00316,-0.13456 -1.00317,-0.13455 -0.32301,0.38921 -0.32302,0.38921 0.34924,0.28984 0.34924,0.28984 1.04309,0.34079 1.04308,0.3408 0.0865,0.60965 0.0865,0.60966 -0.31729,0.38231 -0.31729,0.38232 -1.09208,-0.004 -1.09208,-0.004 z m 6.72718,-0.39519 -0.64943,-0.64943 v -0.78413 -0.78414 l 0.16435,-0.4283 0.16436,-0.4283 0.74855,-0.38709 0.74854,-0.38709 h 0.68663 0.68662 l 0.64943,0.64943 0.64944,0.64943 v 1.05116 1.05116 l -0.69714,0.54837 -0.69714,0.54837 h -0.90239 -0.90239 z m 2.62218,-0.16352 0.69714,-0.54837 v -0.81986 -0.81986 l -0.43788,-0.48385 -0.43789,-0.48385 h -0.75274 -0.75274 l -0.52917,0.52916 -0.52916,0.52917 v 0.77455 0.77454 l 0.69713,0.54837 0.69714,0.54837 h 0.32552 0.32551 z m 4.4013,-1.436 v -2.24896 h 0.26459 0.26458 v 1.98437 1.98438 h 1.17501 1.17501 l 0.16352,0.26458 0.16352,0.26459 h -1.60311 -1.60312 z m 6.23272,1.66092 -0.41188,-0.58804 v -1.66092 -1.66092 h 0.26458 0.26458 v 1.5875 1.5875 l 0.52917,0.52917 0.52917,0.52916 h 0.20571 0.20571 l 0.58804,-0.41188 0.58804,-0.41187 v -1.70479 -1.70479 h 0.26458 0.26458 v 1.81108 1.81107 l -0.48385,0.43788 -0.48385,0.43789 h -0.95636 -0.95635 z m 7.79425,-1.33019 -0.004,-2.05052 h -0.79375 -0.79375 v -0.26459 -0.26458 h 1.85208 1.85209 v 0.26458 0.26459 h -0.79375 -0.79375 l -0.004,1.65364 -0.004,1.65365 -0.25648,0.39687 -0.25648,0.39688 z m 4.75845,-0.33073 v -2.24896 h 0.26458 0.26459 v 2.24896 2.24896 h -0.26459 -0.26458 z m 4.3536,1.59952 -0.64943,-0.64943 v -0.82613 -0.82613 l 0.77339,-0.77339 0.7734,-0.7734 h 0.79935 0.79935 l 0.72913,0.62717 0.72913,0.62717 v 0.9531 0.95309 l -0.62821,0.66869 -0.6282,0.6687 h -1.02424 -1.02424 z m 2.36866,0.12963 0.67129,-0.25523 0.19455,-0.73696 0.19454,-0.73696 -0.0787,-0.39688 -0.0787,-0.39687 -0.414,-0.46302 -0.41401,-0.46302 h -0.75274 -0.75274 l -0.52917,0.52916 -0.52917,0.52917 v 0.67348 0.67349 l 0.64944,0.64943 0.64943,0.64943 h 0.25938 0.25939 z m 4.65482,-1.72915 v -2.24896 h 0.24912 0.24912 l 1.27224,1.65365 1.27223,1.65364 0.0788,-1.65364 0.0788,-1.65365 h 0.25196 0.25196 v 2.24896 2.24896 h -0.21262 -0.21261 l -1.17645,-1.57686 -1.17645,-1.57686 -0.19843,-0.0106 -0.19844,-0.0106 v 1.5875 1.5875 h -0.26458 -0.26459 z m 7.26047,1.83244 -0.51359,-0.41651 0.59531,0.15193 0.59531,0.15193 0.46302,0.14496 0.46302,0.14496 0.51918,-0.38091 0.51918,-0.38091 -0.33902,-0.4085 -0.33902,-0.4085 -0.77514,-0.17025 -0.77514,-0.17025 -0.38462,-0.54912 -0.38462,-0.54913 0.25963,-0.48513 0.25964,-0.48514 0.65382,-0.1641 0.65382,-0.1641 0.66146,0.16602 0.66146,0.16601 v 0.21624 0.21623 l -1.12448,-0.0228 -1.12448,-0.0228 v 0.52801 0.52801 l 1.05026,0.34408 1.05025,0.34408 0.20247,0.31853 0.20246,0.31854 0.004,0.31183 0.004,0.31183 -0.41577,0.41577 -0.41577,0.41578 h -0.85658 -0.85657 z M 62.614779,186.89633 v -5.95313 h 4.630208 4.630208 v 1.05833 1.05834 h -3.307291 -3.307292 v 1.60765 1.60765 l 2.976562,-0.07 2.976563,-0.07 0.08136,1.1082 0.08136,1.1082 h -3.057921 -3.057921 v 2.24896 2.24896 h -1.322917 -1.322916 z m 11.906249,0 v -5.95313 h 4.630208 4.630208 v 1.05833 1.05834 h -3.280649 -3.28065 l -0.09618,1.20928 -0.09618,1.20928 0.113633,0.11364 0.113634,0.11363 h 2.998611 2.998611 v 1.05833 1.05834 h -3.01185 -3.011849 l -0.11937,0.46302 -0.119369,0.46302 0.117458,0.99219 0.117457,0.99218 h 3.410637 3.410636 v 1.05834 1.05833 h -4.7625 -4.7625 z m 12.435416,0 v -5.95313 h 1.322917 1.322916 v 2.38125 2.38125 h 2.778125 2.778125 v -2.38125 -2.38125 h 1.322917 1.322916 v 5.95313 5.95312 h -1.312988 -1.312987 l -0.07608,-2.4474 -0.07607,-2.44739 h -2.645834 -2.645833 l -0.07607,2.44739 -0.07608,2.4474 H 88.26943 86.956442 Z m 14.287496,0 v -5.95313 h 3.58038 3.58037 l 0.97401,0.40697 0.974,0.40696 0.46275,0.41878 0.46274,0.41878 0.30161,0.91388 0.30161,0.91389 -0.17367,1.15813 -0.17367,1.15813 -0.72134,0.74026 -0.72133,0.74026 -0.48028,0.26766 -0.48028,0.26765 1.46897,2.04745 1.46898,2.04745 h -1.54782 -1.54782 l -1.26547,-1.85208 -1.26547,-1.85209 h -1.27622 -1.27621 v 1.85209 1.85208 h -1.32292 -1.32292 z m 6.71655,-0.16662 0.65602,-0.2989 0.31951,-0.77135 0.3195,-0.77135 -0.29837,-0.65485 -0.29837,-0.65485 -0.68193,-0.25927 -0.68194,-0.25927 h -1.70257 -1.70256 v 1.98437 1.98438 h 1.70734 1.70734 z m 8.5566,0.17978 -2.01892,-5.96629 h 0.98585 0.98584 l 1.41391,4.29948 1.4139,4.29948 0.20727,0.22507 0.20727,0.22507 0.18017,-0.62195 0.18016,-0.62194 1.36747,-3.9117 1.36747,-3.9117 0.9043,0.0752 0.9043,0.0752 1.14228,3.43959 1.14227,3.43958 0.43578,1.15872 0.43578,1.15872 0.84752,-2.74622 0.84752,-2.74622 0.5985,-1.91823 0.5985,-1.91823 h 0.90027 0.90027 l -0.004,0.19844 -0.004,0.19844 -1.91391,5.68854 -1.91391,5.68854 h -0.92565 -0.92564 l -1.45846,-4.28028 -1.45845,-4.28028 -0.16414,-0.16413 -0.16413,-0.16414 -0.6925,1.93087 -0.69249,1.93088 -0.89534,2.51354 -0.89533,2.51354 -0.9101,0.0793 -0.91009,0.0793 z m 16.21227,5.82372 v -0.11624 l 2.61925,-5.90303 2.61925,-5.90303 0.89462,-0.0787 0.89463,-0.0787 2.61755,5.89949 2.61755,5.8995 0.1019,0.19843 0.10189,0.19844 h -0.95621 -0.95622 l -0.64356,-1.45521 -0.64356,-1.45521 h -3.14761 -3.14761 l -0.59062,1.45521 -0.59063,1.45521 h -0.89531 -0.89531 z m 8.46666,-4.53071 v -0.14903 l -1.09701,-2.64333 -1.09701,-2.64334 -0.17982,0.21268 -0.17983,0.21268 -0.703,1.61047 -0.703,1.61048 -0.40496,0.96921 -0.40497,0.96921 h 2.3848 2.3848 z m 6.35,-1.30617 v -5.95313 h 3.45013 3.45012 l 1.03895,0.53003 1.03894,0.53003 0.30248,0.56518 0.30248,0.56519 0.21561,0.75179 0.21561,0.75179 -0.27002,0.99727 -0.27002,0.99726 -0.52994,0.57404 -0.52994,0.57404 -0.75742,0.31373 -0.75741,0.31373 1.39298,1.89036 1.39298,1.89035 0.19994,0.33073 0.19993,0.33073 h -1.01169 -1.01169 l -1.53087,-2.11667 -1.53088,-2.11666 h -1.57409 -1.57409 v 2.11666 2.11667 h -0.92604 -0.92605 z m 7.45964,-0.67206 0.80435,-0.80435 -0.16638,-0.83194 -0.16639,-0.83193 -0.4334,-0.4789 -0.43339,-0.4789 -0.95253,-0.26459 -0.95252,-0.26459 -1.65365,-0.001 -1.65364,-0.001 v 2.38125 2.38125 h 2.4016 2.4016 z m 5.76953,0.67206 v -5.95313 h 4.49792 4.49791 v 0.65378 0.65378 l -3.50573,0.0738 -3.50573,0.0738 -0.0782,1.78594 -0.0782,1.78593 h 3.18708 3.18709 v 0.79375 0.79375 h -3.175 -3.175 v 1.85209 1.85208 h 3.70417 3.70417 v 0.79375 0.79375 h -4.63021 -4.63021 z"
       id="path1"
       inkscape:export-filename="..\..\FehrWare-Website\fehrware-website\public\logo11.png"
       inkscape:export-xdpi="96"
       inkscape:export-ydpi="96"
       sodipodi:nodetypes="cccccccccccccccccccccccccccccccccccccccccccccccccccccccccccccccccccccccccccccccccccccccccccccccccccccccccccccccccccccccccccccccccccccccccccccccccccccccccccccccccccccccccccccccccccccccccccccccccccccccccccccccccccccccccccccccccccccccccccccccccccccccccccccccccccccccccccccccccccccccccccccccccccccccccccccccccccccccccccccccccccccccccccccccccccccccccccccccccccccccccccccccccccccccccccccccccccccccccccccccccccccccccccccccccccccccccccccccccccccccccccccccccccccccccccccccccccccccccccccccccccccccccccccccccccccccccccccccccccccccccccccccccccccccccccccccccccccccccccccccccccccccccccccccccccccccccccccccccccccccc" /></g></svg>
